<svg width="136" height="32" viewBox="0 0 136 32" fill="none" xmlns="http://www.w3.org/2000/svg">
<path d="M29.3337 16.0003C29.3337 8.64033 23.3603 2.66699 16.0003 2.66699C8.64033 2.66699 2.66699 8.64033 2.66699 16.0003C2.66699 22.4537 7.25366 27.827 13.3337 29.067V20.0003H10.667V16.0003H13.3337V12.667C13.3337 10.0937 15.427 8.00033 18.0003 8.00033H21.3337V12.0003H18.667C17.9337 12.0003 17.3337 12.6003 17.3337 13.3337V16.0003H21.3337V20.0003H17.3337V29.267C24.067 28.6003 29.3337 22.9203 29.3337 16.0003Z" fill="#FAFAFA"/>
<path d="M69.3708 2.66699C70.8708 2.67099 71.6321 2.67899 72.2894 2.69766L72.5481 2.70699C72.8468 2.71766 73.1414 2.73099 73.4974 2.74699C74.9161 2.81366 75.8841 3.03766 76.7334 3.36699C77.6134 3.70566 78.3548 4.16433 79.0961 4.90433C79.7744 5.57064 80.299 6.37696 80.6334 7.26699C80.9628 8.11633 81.1868 9.08433 81.2534 10.5043C81.2694 10.859 81.2828 11.1537 81.2934 11.4537L81.3014 11.7123C81.3214 12.3683 81.3294 13.1297 81.3321 14.6297L81.3334 15.6243V17.371C81.3367 18.3435 81.3265 19.3161 81.3028 20.2883L81.2948 20.547C81.2841 20.847 81.2708 21.1417 81.2548 21.4963C81.1881 22.9163 80.9614 23.883 80.6334 24.7337C80.299 25.6237 79.7744 26.43 79.0961 27.0963C78.4298 27.7746 77.6235 28.2992 76.7334 28.6337C75.8841 28.963 74.9161 29.187 73.4974 29.2537L72.5481 29.2937L72.2894 29.3017C71.6321 29.3203 70.8708 29.3297 69.3708 29.3323L68.3761 29.3337H66.6308C65.6578 29.3371 64.6848 29.3269 63.7121 29.303L63.4534 29.295C63.1369 29.283 62.8205 29.2692 62.5041 29.2537C61.0854 29.187 60.1174 28.963 59.2668 28.6337C58.3772 28.2991 57.5714 27.7744 56.9054 27.0963C56.2267 26.4301 55.7016 25.6238 55.3668 24.7337C55.0374 23.8843 54.8134 22.9163 54.7468 21.4963L54.7068 20.547L54.7001 20.2883C54.6755 19.3161 54.6644 18.3435 54.6668 17.371V14.6297C54.6631 13.6571 54.6729 12.6846 54.6961 11.7123L54.7054 11.4537C54.7161 11.1537 54.7294 10.859 54.7454 10.5043C54.8121 9.08433 55.0361 8.11766 55.3654 7.26699C55.701 6.37659 56.2271 5.57024 56.9068 4.90433C57.5723 4.22639 58.3777 3.70176 59.2668 3.36699C60.1174 3.03766 61.0841 2.81366 62.5041 2.74699C62.8588 2.73099 63.1548 2.71766 63.4534 2.70699L63.7121 2.69899C64.6844 2.6753 65.6569 2.66508 66.6294 2.66833L69.3708 2.66699ZM68.0001 9.33366C66.232 9.33366 64.5363 10.036 63.2861 11.2863C62.0358 12.5365 61.3334 14.2322 61.3334 16.0003C61.3334 17.7684 62.0358 19.4641 63.2861 20.7144C64.5363 21.9646 66.232 22.667 68.0001 22.667C69.7682 22.667 71.4639 21.9646 72.7142 20.7144C73.9644 19.4641 74.6668 17.7684 74.6668 16.0003C74.6668 14.2322 73.9644 12.5365 72.7142 11.2863C71.4639 10.036 69.7682 9.33366 68.0001 9.33366ZM68.0001 12.0003C68.5254 12.0002 69.0456 12.1036 69.5309 12.3046C70.0162 12.5055 70.4572 12.8001 70.8287 13.1714C71.2002 13.5428 71.4949 13.9837 71.696 14.469C71.8971 14.9542 72.0007 15.4744 72.0008 15.9997C72.0009 16.5249 71.8975 17.0451 71.6965 17.5304C71.4956 18.0158 71.201 18.4568 70.8297 18.8283C70.4583 19.1998 70.0174 19.4945 69.5321 19.6956C69.0469 19.8967 68.5267 20.0002 68.0014 20.0003C66.9406 20.0003 65.9232 19.5789 65.173 18.8288C64.4229 18.0786 64.0014 17.0612 64.0014 16.0003C64.0014 14.9395 64.4229 13.922 65.173 13.1719C65.9232 12.4218 66.9406 12.0003 68.0014 12.0003M75.0014 7.33366C74.5594 7.33366 74.1355 7.50925 73.8229 7.82181C73.5104 8.13438 73.3348 8.5583 73.3348 9.00033C73.3348 9.44235 73.5104 9.86628 73.8229 10.1788C74.1355 10.4914 74.5594 10.667 75.0014 10.667C75.4435 10.667 75.8674 10.4914 76.18 10.1788C76.4925 9.86628 76.6681 9.44235 76.6681 9.00033C76.6681 8.5583 76.4925 8.13438 76.18 7.82181C75.8674 7.50925 75.4435 7.33366 75.0014 7.33366Z" fill="#FAFAFA"/>
<path d="M129.333 4C130.041 4 130.719 4.28095 131.219 4.78105C131.719 5.28115 132 5.95942 132 6.66667V25.3333C132 26.0406 131.719 26.7189 131.219 27.219C130.719 27.719 130.041 28 129.333 28H110.667C109.959 28 109.281 27.719 108.781 27.219C108.281 26.7189 108 26.0406 108 25.3333V6.66667C108 5.95942 108.281 5.28115 108.781 4.78105C109.281 4.28095 109.959 4 110.667 4H129.333ZM128.667 24.6667V17.6C128.667 16.4472 128.209 15.3416 127.394 14.5264C126.578 13.7113 125.473 13.2533 124.32 13.2533C123.187 13.2533 121.867 13.9467 121.227 14.9867V13.5067H117.507V24.6667H121.227V18.0933C121.227 17.0667 122.053 16.2267 123.08 16.2267C123.575 16.2267 124.05 16.4233 124.4 16.7734C124.75 17.1235 124.947 17.5983 124.947 18.0933V24.6667H128.667ZM113.173 11.4133C113.767 11.4133 114.337 11.1773 114.757 10.7573C115.177 10.3372 115.413 9.76742 115.413 9.17333C115.413 7.93333 114.413 6.92 113.173 6.92C112.576 6.92 112.003 7.1574 111.58 7.57999C111.157 8.00257 110.92 8.57571 110.92 9.17333C110.92 10.4133 111.933 11.4133 113.173 11.4133ZM115.027 24.6667V13.5067H111.333V24.6667H115.027Z" fill="#FAFAFA"/>
</svg>
