<svg width="85" height="85" viewBox="0 0 85 85" fill="none" xmlns="http://www.w3.org/2000/svg">
<circle cx="42.5" cy="42.5" r="42.5" fill="#91C549"/>
<path d="M42.8743 24.6918C42.7611 24.6494 42.6364 24.6494 42.5232 24.6918L19.7614 33.2277C18.9439 33.5343 18.8844 34.668 19.6653 35.0585L42.4752 46.4634C42.6159 46.5337 42.7816 46.5337 42.9224 46.4634L54.6462 40.6014L43.4382 37.1747C43.2073 37.2854 42.9547 37.3431 42.6988 37.3437C42.2429 37.3437 41.8058 37.1626 41.4834 36.8402C41.1611 36.5179 40.98 36.0807 40.98 35.6249C40.98 35.1691 41.1611 34.7319 41.4834 34.4096C41.8058 34.0872 42.2429 33.9062 42.6988 33.9062L42.4145 34.8302L44.4058 35.4428L44.4067 35.4488L47.3451 36.3474L64.0757 41.495V42.7997C63.8443 42.9571 63.6549 43.1687 63.5238 43.416C63.3928 43.6633 63.3241 43.9389 63.3238 44.2188C63.3241 44.5051 63.3959 44.7867 63.5327 45.0382C63.6695 45.2897 63.867 45.5031 64.1072 45.6589C63.3248 48.6156 63.3238 55.3242 63.3238 57.9687C65.0425 59.0853 65.0425 59.1261 66.7613 57.9687C66.7613 55.3246 66.7604 48.6173 65.9782 45.6598C66.2185 45.5039 66.416 45.2904 66.5527 45.0387C66.6895 44.787 66.7612 44.5051 66.7613 44.2187C66.7612 43.9385 66.6927 43.6625 66.5616 43.4149C66.4306 43.1672 66.241 42.9554 66.0093 42.7978V40.0671L59.6366 38.1063L65.7322 35.0585C66.5132 34.668 66.4537 33.5343 65.6361 33.2277L42.8743 24.6918ZM28.0489 41.7479L26.6392 50.2063C29.1992 51.5 29.9977 52.3993 33.1992 54C35.1992 55 37.1992 56.0313 38.6992 57C40.1992 57.9687 41.3468 58.5 43.1992 58.5C45.0516 58.5 46.1992 57.75 47.6992 57C49.6992 56 48.6992 56.5 50.6992 55.5C53.7912 53.5675 56.1992 52 58.7583 50.2063L57.3484 41.7479H56.677L42.6988 48.7371L28.7203 41.7479H28.0489Z" fill="#F4F4F4"/>
</svg>
