<svg width="85" height="85" viewBox="0 0 85 85" fill="none" xmlns="http://www.w3.org/2000/svg">
<circle cx="42.5" cy="42.5" r="42.5" fill="#91C549"/>
<path d="M61.1652 52.958C62.4791 52.958 63.5868 53.4163 64.4882 54.333C65.3896 55.2497 65.8326 56.3191 65.8173 57.5413L47.4152 64.4163L31.3736 59.833V39.208H35.8423L52.5027 45.3726C53.6944 45.8462 54.2902 46.7018 54.2902 47.9393C54.2902 48.6573 54.0305 49.2837 53.5111 49.8184C52.9916 50.3531 52.3347 50.6358 51.5402 50.6663H45.1236L41.1132 49.1309L40.3569 51.2851L45.1236 52.958H61.1652ZM51.9986 21.4018C53.618 19.5226 55.6805 18.583 58.1861 18.583C60.2639 18.583 62.0208 19.3469 63.4569 20.8747C64.893 22.4025 65.6569 24.1594 65.7486 26.1455C65.7486 27.7191 64.9847 29.5983 63.4569 31.783C61.9291 33.9677 60.4243 35.7934 58.9423 37.2601C57.4604 38.7268 55.1458 40.9038 51.9986 43.7913C48.8208 40.9038 46.4833 38.7268 44.9861 37.2601C43.4889 35.7934 41.984 33.9677 40.4715 31.783C38.959 29.5983 38.218 27.7191 38.2486 26.1455C38.2486 24.0677 38.9896 22.3108 40.4715 20.8747C41.9534 19.4386 43.7409 18.6747 45.834 18.583C48.2784 18.583 50.3333 19.5226 51.9986 21.4018ZM17.5869 39.208H26.7902V64.4163H17.5869V39.208Z" fill="#F4F4F4"/>
</svg>
