<svg width="85" height="85" viewBox="0 0 85 85" fill="none" xmlns="http://www.w3.org/2000/svg">
<circle cx="42.5" cy="42.5" r="42.5" fill="#91C549"/>
<path fill-rule="evenodd" clip-rule="evenodd" d="M25.3789 20.875C23.5555 20.875 21.8069 21.5993 20.5175 22.8886C19.2282 24.178 18.5039 25.9266 18.5039 27.75V41.0909C18.5039 42.9143 19.2282 44.663 20.5175 45.9523C21.8069 47.2416 23.5555 47.9659 25.3789 47.9659H26.472V51.8125C26.472 52.1397 26.5654 52.4602 26.7412 52.7362C26.917 53.0122 27.1679 53.2322 27.4645 53.3705C27.7611 53.5088 28.091 53.5595 28.4154 53.5167C28.7398 53.474 29.0453 53.3395 29.2959 53.1291L35.4577 47.9659H44.2852C46.1085 47.9659 47.8572 47.2416 49.1465 45.9523C50.4358 44.663 51.1602 42.9143 51.1602 41.0909V27.75C51.1602 25.9266 50.4358 24.178 49.1465 22.8886C47.8572 21.5993 46.1085 20.875 44.2852 20.875H25.3789ZM56.3164 32.9062C55.8606 32.9062 55.4234 33.0873 55.1011 33.4097C54.7787 33.732 54.5977 34.1692 54.5977 34.625V42.8097C54.5977 43.9382 54.3754 45.0557 53.9435 46.0984C53.5116 47.141 52.8786 48.0884 52.0806 48.8864C51.2826 49.6844 50.3352 50.3174 49.2926 50.7493C48.25 51.1812 47.1325 51.4034 46.0039 51.4034H35.6914C35.2356 51.4034 34.7984 51.5845 34.4761 51.9068C34.1537 52.2292 33.9727 52.6663 33.9727 53.1222C33.9727 55.1606 34.863 56.9945 36.2689 58.2509C37.5279 59.3772 39.1584 59.9991 40.8477 59.9972H49.6752L55.8369 65.1603C56.0875 65.3707 56.393 65.5052 56.7174 65.548C57.0418 65.5908 57.3717 65.54 57.6683 65.4017C57.9649 65.2635 58.2158 65.0434 58.3916 64.7674C58.5675 64.4914 58.6608 64.171 58.6608 63.8438V59.9972H59.7539C61.5773 59.9972 63.326 59.2729 64.6153 57.9835C65.9046 56.6942 66.6289 54.9455 66.6289 53.1222V39.7812C66.6289 37.9579 65.9046 36.2092 64.6153 34.9199C63.326 33.6306 61.5773 32.9062 59.7539 32.9062H56.3164Z" fill="#F4F4F4"/>
</svg>
