<svg width="85" height="85" viewBox="0 0 85 85" fill="none" xmlns="http://www.w3.org/2000/svg">
<circle cx="42.5" cy="42.5" r="42.5" fill="#91C549"/>
<path fill-rule="evenodd" clip-rule="evenodd" d="M47.3403 22.5799L64.3995 31.1989C65.1204 31.5656 65.69 32.1734 66.0094 32.9165C66.3289 33.6596 66.3779 34.4911 66.148 35.2666C65.2543 38.3168 65.3528 39.5978 65.9372 41.0439C66.5261 42.5059 66.1182 44.3645 64.592 45.3293L41.0245 60.248C40.0368 60.8736 38.7786 60.9699 37.6855 60.4359L28.8855 56.0932L25.2097 54.2484L22.5972 52.9147L21.0022 52.0782L20.1772 51.6291L19.5791 51.2853C17.2416 49.8759 16.5128 47.0114 16.5266 44.8228C16.5357 42.5976 17.3011 39.8178 19.4255 38.2916L20.113 37.8172L22.0793 36.5316L26.7657 33.5386L43.9716 22.7334C44.4728 22.4209 45.046 22.2428 45.6361 22.2164C46.2262 22.1899 46.8131 22.3136 47.3403 22.5799ZM60.9093 38.4932L41.0336 51.0745L40.7861 51.2189L40.5318 51.338C40.2797 52.273 40.1926 52.9445 40.2018 53.5678C40.2063 53.9391 40.2476 54.3195 40.3278 54.7526L40.4241 55.2041L61.3882 41.9353L61.2232 41.3647C61.0289 40.6188 60.9228 39.8528 60.907 39.0822L60.9093 38.4932ZM21.417 43.0536C21.2121 43.6273 21.1082 44.232 21.1099 44.8411C21.103 46.3811 21.653 47.1855 21.9463 47.362L22.6522 47.763L24.0868 48.5261L28.143 50.5955L35.6482 54.3332C35.6305 54.1022 35.6198 53.8706 35.6161 53.6389C35.6075 52.7816 35.6952 51.926 35.8774 51.0882L36.0309 50.4282L21.417 43.0536ZM47.0011 29.8445C46.483 29.5712 45.8798 29.5067 45.3156 29.6643C44.7514 29.8219 44.2689 30.1895 43.9674 30.6918C43.6658 31.194 43.568 31.7926 43.6941 32.3647C43.8202 32.9368 44.1606 33.4389 44.6453 33.7678L44.8745 33.9053L49.687 36.4261C50.2051 36.6994 50.8083 36.7639 51.3725 36.6063C51.9367 36.4488 52.4192 36.0811 52.7207 35.5789C53.0223 35.0766 53.1201 34.478 52.994 33.9059C52.8679 33.3338 52.5276 32.8317 52.0428 32.5028L51.8136 32.3653L47.0011 29.8445Z" fill="#F4F4F4"/>
</svg>
